<svg xmlns="http://www.w3.org/2000/svg" viewBox="0 0 64 64">
  <defs>
    <linearGradient id="carGradient" x1="0%" y1="0%" x2="100%" y2="100%">
      <stop offset="0%" style="stop-color:#E87800;stop-opacity:1" />
      <stop offset="100%" style="stop-color:#F09030;stop-opacity:1" />
    </linearGradient>
  </defs>

  <!-- Background circle -->
  <circle cx="32" cy="32" r="30" fill="#1a1a2e"/>

  <!-- Race car body -->
  <path d="M 18 28 L 22 22 L 38 22 L 42 28 L 50 28 L 50 38 L 14 38 L 14 28 Z"
        fill="url(#carGradient)" stroke="#000" stroke-width="1"/>

  <!-- Cockpit -->
  <path d="M 28 22 L 30 18 L 36 18 L 38 22 Z"
        fill="#2a2a4e" stroke="#000" stroke-width="0.5"/>

  <!-- Front wing -->
  <rect x="10" y="26" width="6" height="4" fill="#E87800" stroke="#000" stroke-width="0.5"/>

  <!-- Rear wing -->
  <rect x="48" y="24" width="6" height="6" fill="#E87800" stroke="#000" stroke-width="0.5"/>
  <rect x="48" y="20" width="6" height="2" fill="#F09030" stroke="#000" stroke-width="0.5"/>

  <!-- Front wheel -->
  <circle cx="22" cy="38" r="5" fill="#1a1a1a" stroke="#444" stroke-width="1"/>
  <circle cx="22" cy="38" r="2" fill="#666"/>

  <!-- Rear wheel -->
  <circle cx="44" cy="38" r="6" fill="#1a1a1a" stroke="#444" stroke-width="1"/>
  <circle cx="44" cy="38" r="2.5" fill="#666"/>

  <!-- Details/stripes -->
  <line x1="24" y1="28" x2="40" y2="28" stroke="#000" stroke-width="0.5" opacity="0.3"/>
  <line x1="26" y1="32" x2="42" y2="32" stroke="#fff" stroke-width="0.5" opacity="0.2"/>

  <!-- Speed lines -->
  <line x1="8" y1="24" x2="12" y2="24" stroke="#F09030" stroke-width="1.5" opacity="0.6"/>
  <line x1="6" y1="30" x2="11" y2="30" stroke="#F09030" stroke-width="1.5" opacity="0.5"/>
  <line x1="7" y1="36" x2="10" y2="36" stroke="#F09030" stroke-width="1.5" opacity="0.4"/>
</svg>
